<svg width="251" height="617" viewBox="0 0 251 617" fill="none" xmlns="http://www.w3.org/2000/svg">
<path d="M66.356 602.371L79.7986 602.37L86.1941 551.185L66.353 551.186L66.356 602.371Z" fill="#FFB6B6"/>
<path d="M65.8825 616.214L107.223 616.212V615.696C107.222 611.484 105.527 607.444 102.509 604.466C99.4919 601.487 95.3994 599.814 91.132 599.813H91.131L83.5797 594.158L69.4906 599.814L65.8818 599.814L65.8825 616.214Z" fill="#2F2E41"/>
<path d="M88.0649 540.444L98.6483 548.626L135.66 512.226L120.04 500.148L88.0649 540.444Z" fill="#FFB6B6"/>
<path d="M79.0437 551.053L111.588 576.216L111.911 575.81C114.542 572.494 115.731 568.282 115.217 564.1C114.702 559.918 112.526 556.11 109.167 553.512L109.166 553.511L106.754 544.463L92.1294 540.339L89.2885 538.143L79.0437 551.053Z" fill="#2F2E41"/>
<path d="M151.357 307.228C151.357 307.228 169.199 325.492 161.269 367.891L167.926 440.488L169.644 443.849C170.668 445.851 171.026 448.122 170.666 450.337C170.306 452.552 169.247 454.598 167.64 456.184V456.184L166.225 460.517L164.903 468.996L115.672 542.053L96.839 522.484L127.237 453.994L118.976 436.382L99.8127 375.066L86.5963 487.26L89.2396 583.8H63.9437L48.2688 476.171L31.7483 324.84L40.3415 307.228H151.357Z" fill="#2F2E41"/>
<path d="M35.8681 338.611L35.6878 338.361C26.0594 325.055 40.5405 293.081 42.7247 288.446C40.1311 287.615 37.9095 285.923 36.4382 283.657C34.9669 281.391 34.3369 278.691 34.6554 276.018L35.5969 268.118L36.5784 260.369L29.5475 253.429L29.5277 253.256L25.4815 218.309L19.5985 195.097C17.3819 186.322 17.5708 177.123 20.1459 168.445C22.721 159.766 27.5894 151.92 34.2515 145.712L47.8501 143.58L64.3765 127.862H91.0273L100.165 136.48C117.224 139.433 120.154 138.469 134.807 155.826L128.149 209.788L126.488 217.211L126.493 227.28L130.716 231.913C132.237 233.581 133.342 235.578 133.944 237.742C134.545 239.907 134.626 242.181 134.18 244.382L133.625 247.123C137.98 248.965 142.136 281.706 143.129 286.279L144.612 293.111C145.881 294.764 154.256 305.787 154.256 308.8C154.256 309.253 153.918 309.69 153.192 310.175C147.484 313.99 124.728 341.053 110.766 335.538C95.8928 329.668 36.771 338.474 36.1753 338.564L35.8681 338.611Z" fill="#232047"/>
<path d="M32.2874 275.861C32.2874 275.861 39.1313 237.682 32.2365 223.324L4.88428 225.252L9.04689 279.72L32.9578 340.195C32.5928 342.059 32.7338 343.984 33.3664 345.776C33.999 347.568 35.1007 349.163 36.5597 350.399C38.0187 351.635 39.783 352.468 41.6734 352.813C43.5639 353.158 45.5133 353.004 47.3236 352.365C49.134 351.726 50.7409 350.626 51.9811 349.176C53.2214 347.725 54.0509 345.977 54.3855 344.109C54.72 342.24 54.5476 340.317 53.8859 338.535C53.2241 336.753 52.0966 335.176 50.6176 333.963L32.2874 275.861Z" fill="#FFB6B6"/>
<path d="M4.88439 203.074L6.57721 184.878C7.21433 178.029 9.2169 171.372 12.4697 165.291C15.7226 159.209 20.1614 153.822 25.5311 149.439V149.439C28.8674 146.737 32.9031 145.009 37.182 144.451C41.4609 143.894 45.8125 144.529 49.7451 146.284V146.284C55.0597 148.699 59.2469 153.017 61.4601 158.363C63.6733 163.709 63.7474 169.685 61.6674 175.083C55.3456 191.449 57.6284 208.756 45.3015 210.866L46.6407 217.155L34.5204 256.198L0 252.251L4.88439 203.074Z" fill="#232047"/>
<path d="M186.949 257.766C186.949 257.766 166.914 224.416 152.201 217.969L132.74 237.038L171.879 275.651L229.96 306.106C230.914 307.754 232.293 309.123 233.957 310.074C235.62 311.025 237.509 311.525 239.432 311.523C241.354 311.521 243.242 311.017 244.903 310.061C246.565 309.106 247.94 307.734 248.891 306.084C249.841 304.435 250.332 302.566 250.315 300.669C250.297 298.771 249.771 296.912 248.79 295.28C247.809 293.648 246.408 292.301 244.729 291.376C243.05 290.451 241.153 289.981 239.231 290.014L186.949 257.766Z" fill="#FFB6B6"/>
<path d="M118.088 220.225L107.349 205.34C103.308 199.738 100.428 193.402 98.8761 186.698C97.3241 179.993 97.1303 173.052 98.3059 166.273V166.273C99.0496 162.077 100.968 158.169 103.843 154.992C106.719 151.815 110.437 149.495 114.578 148.294V148.294C120.203 146.704 126.229 147.282 131.439 149.91C136.649 152.538 140.653 157.021 142.643 162.453C148.662 178.929 170.619 206.009 162.668 215.543L167.838 219.449L175.652 241.422L146.874 260.651L118.088 220.225Z" fill="#232047"/>
<path d="M75.9036 120.269C92.2499 120.269 105.501 107.189 105.501 91.0534C105.501 74.9181 92.2499 61.8378 75.9036 61.8378C59.5572 61.8378 46.3059 74.9181 46.3059 91.0534C46.3059 107.189 59.5572 120.269 75.9036 120.269Z" fill="#FFB6B6"/>
<path d="M54.4242 111.646C54.1659 111.422 53.922 111.184 53.6695 110.954C53.6605 110.977 53.6591 111.002 53.6494 111.025L54.4242 111.646Z" fill="#2F2E41"/>
<path d="M100.159 60.2016C98.6883 57.8649 96.6515 55.9264 94.2321 54.561C92.5784 53.7693 90.8407 53.1616 89.051 52.749L84.367 51.4875C81.967 50.7544 79.4978 50.2636 76.9975 50.0227C73.5253 49.8537 70.0729 50.6297 67.0172 52.266C63.9615 53.9024 61.4202 56.3361 59.6707 59.3014C58.2555 61.7791 57.1204 64.8667 54.3891 65.7732C52.1867 66.5041 49.7839 65.4731 47.4692 65.6731C46.1129 65.8671 44.826 66.3884 43.7226 67.1907C42.6192 67.993 41.7332 69.0515 41.1433 70.2726C39.9898 72.7298 39.4221 75.4153 39.4838 78.1228C39.3928 84.2699 40.6082 90.3675 43.0516 96.0223C45.4949 101.677 49.1119 106.764 53.6694 110.954C54.4333 108.966 53.1751 106.82 52.1804 104.919C51.174 102.995 50.5521 100.313 52.2377 98.9272C54.1132 97.3854 57.1182 98.8805 59.3363 97.875C60.046 97.4727 60.6437 96.9031 61.076 96.2172C61.5083 95.5313 61.7617 94.7503 61.8138 93.9442C62.0285 92.3467 61.8043 90.7228 61.9059 89.1144C62.0066 87.5201 62.4262 85.9612 63.1407 84.5279C63.8551 83.0946 64.85 81.8151 66.0682 80.7635C67.2863 79.7118 68.7034 78.9088 70.2377 78.4008C71.772 77.8927 73.3931 77.6898 75.0073 77.8036C80.0561 78.1596 84.956 81.5651 89.8147 80.1641C92.0954 79.5065 94.0406 77.8321 96.3994 77.5504C99.0117 77.2385 101.469 78.6938 103.687 80.0911C104.493 76.7127 104.596 73.208 103.99 69.7892C103.383 66.3704 102.08 63.1087 100.159 60.2016Z" fill="#2F2E41"/>
<path d="M36.1482 69.8956C38.6678 69.2719 40.3099 67.1493 39.8161 65.1547C39.3223 63.1601 36.8796 62.0488 34.3601 62.6725C31.8406 63.2963 30.1984 65.4189 30.6922 67.4135C31.186 69.4081 33.6287 70.5194 36.1482 69.8956Z" fill="#3F3D56"/>
<path d="M65.6735 66.9282C54.5513 69.6204 43.1114 70.4341 32.0929 69.3166C31.4378 69.2532 30.8406 69.0331 30.374 68.6831C29.9074 68.3331 29.5916 67.8684 29.4651 67.3455L24.0383 45.4246C23.8615 44.7062 24.0519 43.9284 24.5676 43.2618C25.0833 42.5952 25.8823 42.0943 26.7892 41.8689L88.3758 26.6223C89.2831 26.3985 90.2235 26.4688 90.9907 26.8178C91.7578 27.1668 92.289 27.766 92.4678 28.4839L97.8947 50.4048C98.0267 50.9263 97.9642 51.4847 97.7148 52.012C97.4654 52.5392 97.0398 53.0125 96.49 53.3743C87.2654 59.5032 76.7672 64.1206 65.6735 66.9282Z" fill="#232047"/>
<path d="M61.2687 49.1718C60.8122 49.2851 60.3424 49.3251 59.8868 49.2893L7.01115 45.0677C6.32928 45.0133 5.70565 44.7911 5.22068 44.4297C4.7357 44.0684 4.41161 43.5844 4.29019 43.0403C4.16877 42.4961 4.25561 41.9167 4.53947 41.3768C4.82334 40.8369 5.29121 40.3612 5.88281 40.0111L51.0897 13.2529C51.8175 12.8209 52.6876 12.607 53.5323 12.6526L105.347 15.3916C106.03 15.4277 106.663 15.6312 107.162 15.976C107.662 16.3207 108.007 16.7911 108.153 17.3269C108.299 17.8627 108.24 18.4396 107.982 18.9837C107.724 19.5278 107.28 20.0145 106.707 20.3814L62.5607 48.6217C62.1708 48.8705 61.7313 49.0576 61.2687 49.1718Z" fill="#232047"/>
<path opacity="0.2" d="M106.3 18.0248L62.1539 46.2652C61.8097 46.4854 61.4219 46.6514 61.0135 46.7533C60.6052 46.8552 60.1847 46.891 59.7772 46.8585L6.90165 42.6374C6.23882 42.5892 5.63899 42.3599 5.19694 41.9855C5.05477 42.3344 5.00267 42.696 5.04405 43.0461C5.08543 43.3962 5.21937 43.727 5.43698 44.0163C5.65458 44.3057 5.95085 44.5471 6.30615 44.7245C6.66145 44.9018 7.06762 45.0111 7.49771 45.0451L60.3732 49.2662C60.7808 49.2987 61.2013 49.2629 61.6096 49.161C62.018 49.0591 62.4058 48.8931 62.75 48.6729L106.896 20.4325C107.258 20.2012 107.564 19.9149 107.794 19.5927C108.023 19.2704 108.171 18.9195 108.227 18.5631C108.283 18.2067 108.247 17.8528 108.12 17.525C107.993 17.1971 107.779 16.9027 107.491 16.6611C107.276 17.1942 106.858 17.6736 106.3 18.0248Z" fill="black"/>
<path d="M35.6342 66.1751C35.8359 66.1251 36.0136 66.0138 36.1282 65.8657C36.2429 65.7175 36.2851 65.5445 36.2455 65.3849L31.2593 45.2436L54.5454 31.8034C54.7476 31.7558 54.9271 31.6465 55.0443 31.4995C55.1614 31.3524 55.2068 31.1797 55.1702 31.0194C55.1337 30.859 55.0184 30.724 54.8495 30.6443C54.6807 30.5645 54.4722 30.5464 54.27 30.5939L30.9839 44.0342C30.7812 44.0805 30.5877 44.1589 30.4151 44.2648C30.2425 44.3707 30.0944 44.5018 29.9798 44.6502C29.8633 44.7976 29.782 44.9594 29.7406 45.126C29.6991 45.2925 29.6985 45.4606 29.7386 45.6201L34.7249 65.7614C34.7644 65.921 34.8824 66.0543 35.053 66.1318C35.2235 66.2094 35.4326 66.225 35.6342 66.1751Z" fill="white"/>
</svg>
