<svg width="491" height="250" viewBox="0 0 491 250" fill="none" xmlns="http://www.w3.org/2000/svg">
<path d="M95.5766 233.936C93.2263 233.936 90.9736 234.121 89.1231 234.273C88.8922 234.292 88.6675 234.311 88.4497 234.328C86.3073 234.501 84.9816 234.563 84.0374 234.458C84.0088 234.454 83.9816 234.451 83.9556 234.448C83.9175 234.197 83.8836 233.827 83.8836 233.301V17.191C83.8836 10.7494 89.1333 5.5 95.5766 5.5H411.847C418.288 5.5 423.537 10.7484 423.537 17.191V233.301C423.537 233.827 423.503 234.197 423.465 234.448C423.439 234.451 423.412 234.455 423.384 234.458C422.44 234.563 421.115 234.501 418.973 234.328C418.755 234.311 418.53 234.292 418.299 234.273C416.449 234.121 414.197 233.936 411.847 233.936H95.5766ZM83.4994 234.357C83.4996 234.357 83.5047 234.359 83.5139 234.363C83.5038 234.359 83.4992 234.357 83.4994 234.357ZM423.921 234.357C423.922 234.357 423.917 234.359 423.907 234.363C423.916 234.359 423.921 234.357 423.921 234.357Z" stroke="black" stroke-width="11"/>
<path d="M490.757 244.724C490.757 247.487 478.502 249.726 473.828 249.726H33.6851C29.0101 249.726 16.7566 247.487 16.7566 244.724C16.7566 241.964 20.5453 239.726 25.2203 239.726H482.289C486.965 239.726 490.752 241.966 490.752 244.725L490.757 244.724Z" fill="url(#paint0_linear_5_53)"/>
<path d="M490.757 234.726H16.7566V241.726H490.757V234.726Z" fill="url(#paint1_linear_5_53)"/>
<path d="M467.977 235.136C467.977 235.66 467.191 236.087 466.219 236.087H457.781C456.809 236.087 456.024 235.66 456.024 235.136C456.024 234.61 456.809 234.187 457.781 234.187H466.219C467.189 234.187 467.979 234.607 467.979 235.137L467.977 235.136Z" fill="black"/>
<path d="M286.477 239.596H221.046C219.638 239.596 218.495 238.531 218.495 237.218V234.838H289.027V237.218C289.027 238.528 287.877 239.598 286.477 239.598V239.596Z" fill="#3E3D3D"/>
<path d="M84.224 32.9514H16.3795C8.22681 32.9514 1.61774 39.5461 1.61774 47.681V218.771C1.61774 226.906 8.22681 233.501 16.3795 233.501H84.224C92.3767 233.501 98.9858 226.906 98.9858 218.771V47.681C98.9858 39.5461 92.3767 32.9514 84.224 32.9514Z" fill="url(#paint2_radial_5_53)" stroke="#A57973" stroke-width="0.282222"/>
<path d="M99.0946 48.8524H1.48212V51.7297H99.0946V48.8524Z" fill="url(#paint3_radial_5_53)"/>
<path d="M84.0258 33.9082H16.2909C8.55997 33.9082 2.29092 40.162 2.29092 47.8788V218.573C2.29092 226.29 8.55997 232.544 16.2909 232.544H84.0258C91.7568 232.544 98.0258 226.29 98.0258 218.573V47.8788C98.0258 40.162 91.7568 33.9082 84.0258 33.9082Z" fill="#E2E5E6" stroke="black"/>
<path d="M16.1165 36.8063H84.0663C90.1593 36.8063 95.0931 41.734 95.0931 47.8057V218.811C95.0931 224.883 90.1593 229.81 84.0663 229.81H16.1165C10.0236 229.81 5.08981 224.883 5.08981 218.811V47.8057C5.08981 41.734 10.0236 36.8063 16.1165 36.8063Z" fill="#F6F8F9" stroke="black" stroke-width="3"/>
<path d="M1.48212 214.44V217.318C1.50581 217.443 1.96303 217.551 2.79092 217.644V214.609C1.92734 214.535 1.48212 214.44 1.48212 214.44Z" fill="url(#paint4_linear_5_53)"/>
<path d="M99.0947 214.44C99.0947 214.44 98.5735 214.661 97.526 214.796V217.686C97.9571 217.608 98.4572 217.492 99.0947 217.318V214.44V214.44Z" fill="url(#paint5_linear_5_53)"/>
<path fill-rule="evenodd" clip-rule="evenodd" d="M56.8824 233.5C56.6319 233.377 56.3972 233.246 56.0812 233.151C55.8454 233.08 55.5917 233.021 55.3209 232.979C55.05 232.938 54.7617 232.914 54.457 232.914H45.9406C45.6588 232.914 45.3903 232.939 45.1359 232.982C44.8814 233.025 44.6411 233.086 44.4163 233.16C44.1344 233.253 43.9232 233.381 43.6917 233.5H56.8824V233.5Z" fill="#010101" fill-opacity="0.847059" stroke="black" stroke-width="0.282222"/>
<path fill-rule="evenodd" clip-rule="evenodd" d="M20.5232 232.595C19.94 232.595 19.3718 232.683 18.8986 232.845C18.4254 233.008 18.0712 233.237 17.8858 233.5H23.1596C22.9743 233.237 22.6201 233.008 22.1471 232.845C21.6741 232.683 21.1061 232.595 20.5232 232.595Z" fill="black" fill-opacity="0.898039" stroke="#DEC2BF" stroke-width="0.282222"/>
<path fill-rule="evenodd" clip-rule="evenodd" d="M50.2681 212.233C48.791 212.237 47.3448 212.655 46.0948 213.44L46.4949 214.379C47.6142 213.641 48.9262 213.246 50.2681 213.245C54.0535 213.245 57.1221 216.307 57.1222 220.084C57.1181 223.283 54.8923 226.052 51.7637 226.75C51.7602 227.099 51.8988 227.412 52.1656 227.694C55.67 226.825 58.1317 223.687 58.1361 220.084C58.1362 215.748 54.6135 212.233 50.2681 212.233V212.233ZM46.0948 213.44C45.877 213.576 45.666 213.723 45.4626 213.88C45.666 213.723 45.877 213.576 46.0948 213.44ZM45.4415 213.896C45.2458 214.048 45.0574 214.209 44.8769 214.379C45.0574 214.209 45.2458 214.048 45.4415 213.896ZM44.8375 214.416C44.6652 214.581 44.5004 214.753 44.3437 214.932C44.5004 214.753 44.6652 214.581 44.8375 214.416ZM44.2895 214.994C44.1425 215.166 44.003 215.345 43.8715 215.529C44.003 215.345 44.1425 215.166 44.2895 214.994ZM43.7993 215.63C43.6784 215.806 43.5646 215.986 43.4584 216.171C43.5646 215.986 43.6784 215.806 43.7993 215.63ZM43.3786 216.309C43.2825 216.485 43.1931 216.664 43.1107 216.847C43.1931 216.664 43.2825 216.485 43.3786 216.309ZM43.0282 217.031C42.956 217.203 42.89 217.377 42.8302 217.553C42.89 217.377 42.956 217.203 43.0282 217.031ZM42.7531 217.784C42.7037 217.947 42.6596 218.112 42.6209 218.278C42.6596 218.112 42.7037 217.947 42.7531 217.784ZM42.556 218.566C42.5269 218.716 42.5023 218.866 42.482 219.017C42.5023 218.866 42.5269 218.716 42.556 218.566ZM42.4404 219.362C42.4226 219.544 42.4112 219.728 42.4063 219.911C42.4112 219.728 42.4226 219.544 42.4404 219.362ZM51.157 226.857C51.1069 226.864 51.0567 226.87 51.0065 226.875C51.0567 226.87 51.1069 226.864 51.157 226.857ZM50.4697 226.916C50.4025 226.92 50.3353 226.922 50.2681 226.923C50.3353 226.921 50.4025 226.919 50.4697 226.916ZM52.1571 227.695C51.5395 227.851 50.9052 227.932 50.2681 227.935C50.9052 227.932 51.5395 227.851 52.1571 227.695Z" fill="url(#paint6_radial_5_53)"/>
<path fill-rule="evenodd" clip-rule="evenodd" d="M46.0947 213.44C43.7995 214.873 42.4039 217.383 42.4 220.084C42.3999 224.42 45.9226 227.935 50.268 227.935C50.908 227.932 51.5453 227.851 52.1656 227.694C52.2976 227.317 52.2774 226.975 51.7637 226.75C51.273 226.862 50.7715 226.921 50.268 226.923C46.4826 226.923 43.414 223.861 43.414 220.084C43.4156 217.787 44.5729 215.644 46.4949 214.379C46.4875 214.003 46.4061 213.664 46.0947 213.44Z" fill="url(#paint7_radial_5_53)"/>
<path fill-rule="evenodd" clip-rule="evenodd" d="M99.006 75.5219C98.8656 75.5219 98.7387 75.578 98.6471 75.6694C98.6242 75.6923 98.6039 75.7172 98.5857 75.7441C98.5856 75.7442 98.5858 75.7445 98.5857 75.7445C98.5495 75.7982 98.523 75.8593 98.5095 75.9251C98.5028 75.9581 98.4992 75.9925 98.4992 76.0275V89.9074C98.4992 89.9424 98.5028 89.9764 98.5095 90.0093C98.5111 90.0172 98.5143 90.0244 98.5163 90.0321C98.5308 90.0892 98.5537 90.143 98.5857 90.1904C98.6039 90.2173 98.6242 90.2422 98.6471 90.2651C98.6701 90.288 98.6953 90.3086 98.7224 90.3268C98.7493 90.3449 98.7781 90.3605 98.8084 90.3733C98.8387 90.386 98.8703 90.3961 98.9034 90.4028C98.9366 90.4096 98.9707 90.4131 99.006 90.4131C99.0406 90.4131 99.0746 90.4093 99.1073 90.4028C99.3393 90.3563 99.5132 90.1531 99.5132 89.9074V76.0275C99.5132 75.7819 99.3393 75.5782 99.1073 75.5317C99.0746 75.5251 99.0406 75.5219 99.006 75.5219V75.5219Z" stroke="black" stroke-width="0.282222"/>
<path d="M99.513 76.0274C99.513 75.7481 99.286 75.5216 99.0061 75.5216C98.7261 75.5216 98.4991 75.7481 98.4991 76.0274V89.9072C98.4991 90.1866 98.7261 90.4131 99.0061 90.4131C99.286 90.4131 99.513 90.1866 99.513 89.9072V76.0274Z" fill="url(#paint8_radial_5_53)"/>
<path fill-rule="evenodd" clip-rule="evenodd" d="M99.006 75.5219C98.7252 75.5219 98.4992 75.7473 98.4992 76.0275V89.9074C98.4992 90.1876 98.7252 90.4131 99.006 90.4131C99.0406 90.4131 99.0746 90.4093 99.1073 90.4028V75.5317C99.0746 75.5251 99.0406 75.5219 99.006 75.5219V75.5219Z" fill="url(#paint9_linear_5_53)"/>
<path fill-rule="evenodd" clip-rule="evenodd" d="M1.50721 75.5219C1.64763 75.5219 1.77449 75.578 1.86612 75.6694C1.88901 75.6923 1.90931 75.7172 1.9275 75.7441C1.92756 75.7442 1.92744 75.7445 1.9275 75.7445C1.96376 75.7982 1.99024 75.8593 2.00367 75.9251C2.01039 75.9581 2.01398 75.9925 2.01398 76.0275V89.9074C2.01398 89.9424 2.01039 89.9764 2.00367 90.0093C2.00207 90.0172 1.99892 90.0244 1.99695 90.0321C1.98245 90.0892 1.95953 90.143 1.9275 90.1904C1.90931 90.2173 1.88902 90.2422 1.86612 90.2651C1.84315 90.288 1.81789 90.3086 1.79084 90.3268C1.76388 90.3449 1.73516 90.3605 1.70481 90.3733C1.67447 90.386 1.64288 90.3961 1.60982 90.4028C1.57663 90.4096 1.54247 90.4131 1.50721 90.4131C1.47256 90.4131 1.43861 90.4093 1.40595 90.4028C1.17389 90.3563 1 90.1531 1 89.9074V76.0275C1 75.7819 1.17389 75.5782 1.40595 75.5317C1.43861 75.5251 1.47256 75.5219 1.50721 75.5219V75.5219Z" stroke="black" stroke-width="0.282222"/>
<path d="M1.00021 76.0274C1.00021 75.7481 1.22717 75.5216 1.50714 75.5216C1.78711 75.5216 2.01407 75.7481 2.01407 76.0274V89.9072C2.01407 90.1866 1.78711 90.4131 1.50714 90.4131C1.22717 90.4131 1.00021 90.1866 1.00021 89.9072V76.0274Z" fill="url(#paint10_radial_5_53)"/>
<path fill-rule="evenodd" clip-rule="evenodd" d="M1.50721 75.5219C1.78805 75.5219 2.01398 75.7473 2.01398 76.0275V89.9074C2.01398 90.1876 1.78805 90.4131 1.50721 90.4131C1.47256 90.4131 1.43861 90.4093 1.40595 90.4028V75.5317C1.43861 75.5251 1.47256 75.5219 1.50721 75.5219V75.5219Z" fill="url(#paint11_linear_5_53)"/>
<path fill-rule="evenodd" clip-rule="evenodd" d="M1.50721 93.9491C1.64763 93.9491 1.77449 94.0052 1.86612 94.0966C1.88901 94.1195 1.90931 94.1444 1.9275 94.1713C1.92756 94.1714 1.92744 94.1717 1.9275 94.1717C1.96376 94.2255 1.99024 94.2865 2.00367 94.3524C2.01039 94.3854 2.01398 94.4197 2.01398 94.4547V108.335C2.01398 108.37 2.01039 108.404 2.00367 108.437C2.00207 108.444 1.99892 108.452 1.99695 108.459C1.98245 108.516 1.95953 108.57 1.9275 108.618C1.90931 108.645 1.88902 108.669 1.86612 108.692C1.84315 108.715 1.81789 108.736 1.79084 108.754C1.76388 108.772 1.73516 108.788 1.70481 108.801C1.67447 108.813 1.64288 108.823 1.60982 108.83C1.57663 108.837 1.54247 108.84 1.50721 108.84C1.47256 108.84 1.43861 108.837 1.40595 108.83C1.17389 108.784 1 108.58 1 108.335V94.4547C1 94.2091 1.17389 94.0054 1.40595 93.9589C1.43861 93.9524 1.47256 93.9491 1.50721 93.9491V93.9491Z" stroke="black" stroke-width="0.282222"/>
<path d="M1.00021 94.4546C1.00021 94.1753 1.22717 93.9488 1.50714 93.9488C1.78711 93.9488 2.01407 94.1753 2.01407 94.4546V108.334C2.01407 108.614 1.78711 108.84 1.50714 108.84C1.22717 108.84 1.00021 108.614 1.00021 108.334V94.4546Z" fill="url(#paint12_radial_5_53)"/>
<path fill-rule="evenodd" clip-rule="evenodd" d="M1.50721 93.9491C1.78805 93.9491 2.01398 94.1745 2.01398 94.4547V108.335C2.01398 108.615 1.78805 108.84 1.50721 108.84C1.47256 108.84 1.43861 108.837 1.40595 108.83V93.9589C1.43861 93.9524 1.47256 93.9491 1.50721 93.9491V93.9491Z" fill="url(#paint13_linear_5_53)"/>
<path fill-rule="evenodd" clip-rule="evenodd" d="M1.50721 58.4681C1.64763 58.4681 1.77449 58.5242 1.86612 58.6156C1.88901 58.6385 1.90931 58.6634 1.9275 58.6903C1.92756 58.6904 1.92744 58.6907 1.9275 58.6907C1.96376 58.7444 1.99024 58.8055 2.00367 58.8713C2.01039 58.9043 2.01398 58.9387 2.01398 58.9737V65.7519C2.01398 65.7869 2.01039 65.8208 2.00367 65.8538C2.00207 65.8617 1.99892 65.8688 1.99695 65.8766C1.98245 65.9337 1.95953 65.9875 1.9275 66.0349C1.90931 66.0618 1.88902 66.0867 1.86612 66.1095C1.84315 66.1325 1.81789 66.153 1.79084 66.1712C1.76388 66.1894 1.73516 66.205 1.70481 66.2177C1.67447 66.2305 1.64288 66.2405 1.60982 66.2472C1.57663 66.254 1.54247 66.2575 1.50721 66.2575C1.47256 66.2575 1.43861 66.2538 1.40595 66.2472C1.17389 66.2007 1 65.9975 1 65.7519V58.9737C1 58.7281 1.17389 58.5244 1.40595 58.4779C1.43861 58.4714 1.47256 58.4681 1.50721 58.4681V58.4681Z" stroke="black" stroke-width="0.282222"/>
<path d="M1.00021 58.9736C1.00021 58.6943 1.22717 58.4678 1.50714 58.4678C1.78711 58.4678 2.01407 58.6943 2.01407 58.9736V65.7719C2.01407 66.0513 1.78711 66.2777 1.50714 66.2777C1.22717 66.2777 1.00021 66.0513 1.00021 65.7719V58.9736Z" fill="url(#paint14_radial_5_53)"/>
<path fill-rule="evenodd" clip-rule="evenodd" d="M1.50721 58.4681C1.78805 58.4681 2.01398 58.6935 2.01398 58.9737V65.7813C2.01398 66.0616 1.78805 66.287 1.50721 66.287C1.47256 66.287 1.43861 66.2833 1.40595 66.2767V58.4779C1.43861 58.4714 1.47256 58.4681 1.50721 58.4681Z" fill="url(#paint15_linear_5_53)"/>
<path d="M34.7777 47.6674C35.7299 47.6674 36.5018 46.8972 36.5018 45.9471C36.5018 44.997 35.7299 44.2268 34.7777 44.2268C33.8255 44.2268 33.0536 44.997 33.0536 45.9471C33.0536 46.8972 33.8255 47.6674 34.7777 47.6674Z" fill="url(#paint16_radial_5_53)"/>
<path d="M34.7777 46.8591C35.2825 46.8591 35.6917 46.4508 35.6917 45.9471C35.6917 45.4435 35.2825 45.0352 34.7777 45.0352C34.273 45.0352 33.8638 45.4435 33.8638 45.9471C33.8638 46.4508 34.273 46.8591 34.7777 46.8591Z" fill="url(#paint17_radial_5_53)"/>
<path d="M50.2604 40.5898C50.8488 40.5898 51.3257 40.1139 51.3257 39.5268C51.3257 38.9397 50.8488 38.4638 50.2604 38.4638C49.6721 38.4638 49.1951 38.9397 49.1951 39.5268C49.1951 40.1139 49.6721 40.5898 50.2604 40.5898Z" fill="#2A2A2A" stroke="#080707" stroke-width="0.282222"/>
<path d="M57.3061 45.3542H43.254C42.89 45.3542 42.595 45.6486 42.595 46.0118C42.595 46.375 42.89 46.6694 43.254 46.6694H57.3061C57.67 46.6694 57.9651 46.375 57.9651 46.0118C57.9651 45.6486 57.67 45.3542 57.3061 45.3542Z" fill="#333234" stroke="#191919" stroke-width="0.282222"/>
<path d="M13.3486 121.166V124.574H18.8446V127.742H13.3486V131.438H19.5646V134.726H9.24459V117.878H19.5646V121.166H13.3486ZM28.541 117.878C30.317 117.878 31.869 118.23 33.197 118.934C34.525 119.638 35.549 120.63 36.269 121.91C37.005 123.174 37.373 124.638 37.373 126.302C37.373 127.95 37.005 129.414 36.269 130.694C35.549 131.974 34.517 132.966 33.173 133.67C31.845 134.374 30.301 134.726 28.541 134.726H22.229V117.878H28.541ZM28.277 131.174C29.829 131.174 31.037 130.75 31.901 129.902C32.765 129.054 33.197 127.854 33.197 126.302C33.197 124.75 32.765 123.542 31.901 122.678C31.037 121.814 29.829 121.382 28.277 121.382H26.333V131.174H28.277ZM43.6985 117.878V127.958C43.6985 128.966 43.9465 129.742 44.4425 130.286C44.9385 130.83 45.6665 131.102 46.6265 131.102C47.5865 131.102 48.3225 130.83 48.8345 130.286C49.3465 129.742 49.6025 128.966 49.6025 127.958V117.878H53.7065V127.934C53.7065 129.438 53.3865 130.71 52.7465 131.75C52.1065 132.79 51.2425 133.574 50.1545 134.102C49.0825 134.63 47.8825 134.894 46.5545 134.894C45.2265 134.894 44.0345 134.638 42.9785 134.126C41.9385 133.598 41.1145 132.814 40.5065 131.774C39.8985 130.718 39.5945 129.438 39.5945 127.934V117.878H43.6985ZM60.6923 117.878V134.726H56.5883V117.878H60.6923ZM74.8505 123.206C74.5465 122.646 74.1065 122.222 73.5305 121.934C72.9705 121.63 72.3065 121.478 71.5385 121.478C70.2105 121.478 69.1465 121.918 68.3465 122.798C67.5465 123.662 67.1465 124.822 67.1465 126.278C67.1465 127.83 67.5625 129.046 68.3945 129.926C69.2425 130.79 70.4025 131.222 71.8745 131.222C72.8825 131.222 73.7305 130.966 74.4185 130.454C75.1225 129.942 75.6345 129.206 75.9545 128.246H70.7465V125.222H79.6745V129.038C79.3705 130.062 78.8505 131.014 78.1145 131.894C77.3945 132.774 76.4745 133.486 75.3545 134.03C74.2345 134.574 72.9705 134.846 71.5625 134.846C69.8985 134.846 68.4105 134.486 67.0985 133.766C65.8025 133.03 64.7865 132.014 64.0505 130.718C63.3305 129.422 62.9705 127.942 62.9705 126.278C62.9705 124.614 63.3305 123.134 64.0505 121.838C64.7865 120.526 65.8025 119.51 67.0985 118.79C68.3945 118.054 69.8745 117.686 71.5385 117.686C73.5545 117.686 75.2505 118.174 76.6265 119.15C78.0185 120.126 78.9385 121.478 79.3865 123.206H74.8505ZM94.7877 123.302C94.7877 124.278 94.5637 125.174 94.1157 125.99C93.6677 126.79 92.9797 127.438 92.0517 127.934C91.1237 128.43 89.9717 128.678 88.5957 128.678H86.0517V134.726H81.9477V117.878H88.5957C89.9397 117.878 91.0757 118.11 92.0037 118.574C92.9317 119.038 93.6277 119.678 94.0917 120.494C94.5557 121.31 94.7877 122.246 94.7877 123.302ZM88.2837 125.414C89.0677 125.414 89.6517 125.23 90.0357 124.862C90.4197 124.494 90.6117 123.974 90.6117 123.302C90.6117 122.63 90.4197 122.11 90.0357 121.742C89.6517 121.374 89.0677 121.19 88.2837 121.19H86.0517V125.414H88.2837Z" fill="black"/>
<defs>
<linearGradient id="paint0_linear_5_53" x1="19.9299" y1="249.875" x2="488.463" y2="227.927" gradientUnits="userSpaceOnUse">
<stop stop-color="#666666"/>
<stop offset="0.3031" stop-color="#636363"/>
<stop offset="0.5649" stop-color="#585858"/>
<stop offset="0.8107" stop-color="#464646"/>
<stop offset="1" stop-color="#333333"/>
</linearGradient>
<linearGradient id="paint1_linear_5_53" x1="16.7566" y1="238.225" x2="490.757" y2="238.225" gradientUnits="userSpaceOnUse">
<stop stop-color="#666666"/>
<stop offset="0.002" stop-color="#777777"/>
<stop offset="0.0065" stop-color="#999999"/>
<stop offset="0.0114" stop-color="#B5B5B5"/>
<stop offset="0.0167" stop-color="#CBCBCB"/>
<stop offset="0.0224" stop-color="#DADADA"/>
<stop offset="0.0291" stop-color="#E3E3E3"/>
<stop offset="0.0388" stop-color="#E6E6E6"/>
<stop offset="0.0502" stop-color="#D4D4D4"/>
<stop offset="0.0684" stop-color="#BEBEBE"/>
<stop offset="0.0899" stop-color="#ADADAD"/>
<stop offset="0.1166" stop-color="#A2A2A2"/>
<stop offset="0.1539" stop-color="#9B9B9B"/>
<stop offset="0.2577" stop-color="#999999"/>
<stop offset="0.9444" stop-color="#666666"/>
<stop offset="0.9518" stop-color="#7A7A7A"/>
<stop offset="0.9668" stop-color="#AFAFAF"/>
<stop offset="0.9811" stop-color="#E6E6E6"/>
<stop offset="1" stop-color="#333333"/>
</linearGradient>
<radialGradient id="paint2_radial_5_53" cx="0" cy="0" r="1" gradientUnits="userSpaceOnUse" gradientTransform="translate(46.8376 125.268) rotate(90) scale(108.233 52.1482)">
<stop stop-color="#FEE6E3"/>
<stop offset="0.954117" stop-color="#FCE3E0"/>
<stop offset="1" stop-color="#E9BFB9"/>
</radialGradient>
<radialGradient id="paint3_radial_5_53" cx="0" cy="0" r="1" gradientUnits="userSpaceOnUse" gradientTransform="translate(50.1197 50.595) rotate(90.0414) scale(47.9079 48.8661)">
<stop stop-color="#EFEFF1"/>
<stop offset="0.980069" stop-color="#EDEDEF"/>
<stop offset="1" stop-color="#BBBBBC"/>
</radialGradient>
<linearGradient id="paint4_linear_5_53" x1="1.48212" y1="216.042" x2="2.79092" y2="216.042" gradientUnits="userSpaceOnUse">
<stop stop-color="#CACBCD"/>
<stop offset="1" stop-color="#E7E8E9"/>
</linearGradient>
<linearGradient id="paint5_linear_5_53" x1="99.0947" y1="216.402" x2="97.526" y2="216.402" gradientUnits="userSpaceOnUse">
<stop stop-color="#D7DADA" stop-opacity="0.647059"/>
<stop offset="1" stop-color="#EDEFEF"/>
</linearGradient>
<radialGradient id="paint6_radial_5_53" cx="0" cy="0" r="1" gradientUnits="userSpaceOnUse" gradientTransform="translate(57.0244 221.235) rotate(-0.343471) scale(5.93128 9.52384)">
<stop stop-color="#FDF0EE"/>
<stop offset="0.61756" stop-color="#DDB4AF"/>
<stop offset="1" stop-color="#4F2823"/>
</radialGradient>
<radialGradient id="paint7_radial_5_53" cx="0" cy="0" r="1" gradientUnits="userSpaceOnUse" gradientTransform="translate(44.2802 223.412) scale(5.75922 5.74665)">
<stop stop-color="#FFECEA"/>
<stop offset="0.61756" stop-color="#DDB4AF"/>
<stop offset="1" stop-color="#4F2823"/>
</radialGradient>
<radialGradient id="paint8_radial_5_53" cx="0" cy="0" r="1" gradientUnits="userSpaceOnUse" gradientTransform="translate(99.0061 82.9673) scale(5.52411 7.56019)">
<stop stop-color="#FDF0EE"/>
<stop offset="0.61756" stop-color="#DDB4AF"/>
<stop offset="1" stop-color="#4F2823"/>
</radialGradient>
<linearGradient id="paint9_linear_5_53" x1="99.006" y1="90.4131" x2="99.006" y2="75.5219" gradientUnits="userSpaceOnUse">
<stop stop-color="#7E514A"/>
<stop offset="0.111224" stop-color="#FFD9D3"/>
<stop offset="0.710738" stop-color="#DAADA7"/>
<stop offset="1" stop-color="#F8DFD9"/>
</linearGradient>
<radialGradient id="paint10_radial_5_53" cx="0" cy="0" r="1" gradientUnits="userSpaceOnUse" gradientTransform="translate(1.50712 82.9673) rotate(180) scale(5.52415 7.56019)">
<stop stop-color="#FDF0EE"/>
<stop offset="0.61756" stop-color="#DDB4AF"/>
<stop offset="1" stop-color="#4F2823"/>
</radialGradient>
<linearGradient id="paint11_linear_5_53" x1="1.50721" y1="90.4131" x2="1.50721" y2="75.5219" gradientUnits="userSpaceOnUse">
<stop stop-color="#7E514A"/>
<stop offset="0.111224" stop-color="#FFD9D3"/>
<stop offset="0.710738" stop-color="#DAADA7"/>
<stop offset="1" stop-color="#F8DFD9"/>
</linearGradient>
<radialGradient id="paint12_radial_5_53" cx="0" cy="0" r="1" gradientUnits="userSpaceOnUse" gradientTransform="translate(1.50712 101.395) rotate(180) scale(5.52415 7.56019)">
<stop stop-color="#FDF0EE"/>
<stop offset="0.61756" stop-color="#DDB4AF"/>
<stop offset="1" stop-color="#4F2823"/>
</radialGradient>
<linearGradient id="paint13_linear_5_53" x1="1.50721" y1="108.84" x2="1.50721" y2="93.9491" gradientUnits="userSpaceOnUse">
<stop stop-color="#7E514A"/>
<stop offset="0.111224" stop-color="#FFD9D3"/>
<stop offset="0.710738" stop-color="#DAADA7"/>
<stop offset="1" stop-color="#F8DFD9"/>
</linearGradient>
<radialGradient id="paint14_radial_5_53" cx="0" cy="0" r="1" gradientUnits="userSpaceOnUse" gradientTransform="translate(1.50712 65.9136) rotate(180) scale(5.52413 7.56018)">
<stop stop-color="#FDF0EE"/>
<stop offset="0.61756" stop-color="#DDB4AF"/>
<stop offset="1" stop-color="#4F2823"/>
</radialGradient>
<linearGradient id="paint15_linear_5_53" x1="1.50721" y1="73.3593" x2="1.50721" y2="58.4681" gradientUnits="userSpaceOnUse">
<stop/>
<stop offset="0.111224" stop-color="#FFD9D3"/>
<stop offset="0.710738" stop-color="#DAADA7"/>
<stop offset="1" stop-color="#F8DFD9"/>
</linearGradient>
<radialGradient id="paint16_radial_5_53" cx="0" cy="0" r="1" gradientUnits="userSpaceOnUse" gradientTransform="translate(35.7097 46.7197) scale(2.22467 2.21982)">
<stop stop-color="#565552"/>
<stop offset="1" stop-color="#140F00"/>
</radialGradient>
<radialGradient id="paint17_radial_5_53" cx="0" cy="0" r="1" gradientUnits="userSpaceOnUse" gradientTransform="translate(34.7777 45.9471) scale(0.913948 0.911958)">
<stop stop-color="#1952D0"/>
<stop offset="1" stop-color="#0A2E87"/>
</radialGradient>
</defs>
</svg>
