<svg width="30" height="30" viewBox="0 0 30 30" fill="none" xmlns="http://www.w3.org/2000/svg">
<path d="M29.1128 25.0719L22.8433 18.8508C24.0589 16.9509 24.7618 14.6984 24.7618 12.2872C24.7618 5.51237 19.2078 0 12.3803 0C5.55273 0 0 5.51237 0 12.2872C0 19.0621 5.55273 24.5744 12.3815 24.5744C14.6918 24.5744 16.856 23.9432 18.7077 22.8457L25.0326 29.1218C27.7334 31.798 31.8148 27.7519 29.1128 25.0719ZM3.83828 12.2872C3.83828 7.61357 7.67153 3.80991 12.3815 3.80991C17.0915 3.80991 20.9248 7.61232 20.9248 12.2872C20.9248 16.9621 17.0915 20.7645 12.3815 20.7645C7.67153 20.7645 3.83828 16.9609 3.83828 12.2872V12.2872ZM6.37027 10.0823C8.8695 4.33365 17.2842 4.99988 18.8689 11.0185C15.6769 7.30108 10.0599 6.90109 6.37027 10.0823Z" fill="#2797FF"/>
</svg>
