<svg width="992" height="609" viewBox="0 0 992 609" fill="none" xmlns="http://www.w3.org/2000/svg" xmlns:xlink="http://www.w3.org/1999/xlink">
      <path d="M66.356 594.688L79.7986 594.687L86.1941 543.502L66.353 543.503L66.356 594.688Z" fill="#FFB6B6"/>
      <path d="M65.8825 608.531L107.223 608.529V608.013C107.222 603.801 105.527 599.761 102.509 596.782C99.4919 593.804 95.3994 592.13 91.132 592.13H91.131L83.5797 586.475L69.4906 592.131L65.8818 592.131L65.8825 608.531Z" fill="#2F2E41"/>
      <path d="M88.0649 532.76L98.6483 540.943L135.66 504.542L120.04 492.465L88.0649 532.76Z" fill="#FFB6B6"/>
      <path d="M79.0437 543.37L111.588 568.533L111.911 568.127C114.542 564.811 115.731 560.598 115.217 556.417C114.702 552.235 112.526 548.427 109.167 545.829L109.166 545.828L106.754 536.78L92.1294 532.656L89.2885 530.459L79.0437 543.37Z" fill="#2F2E41"/>
      <path d="M151.357 299.545C151.357 299.545 169.199 317.809 161.269 360.208L167.926 432.805L169.644 436.166C170.668 438.168 171.026 440.439 170.666 442.654C170.306 444.869 169.247 446.915 167.64 448.501L166.225 452.833L164.903 461.313L115.672 534.37L96.839 514.801L127.237 446.31L118.976 428.699L99.8127 367.383L86.5963 479.577L89.2396 576.116H63.9437L48.2688 468.488L31.7483 317.157L40.3415 299.545H151.357Z" fill="#2F2E41"/>
      <path d="M35.8681 330.928L35.6878 330.678C26.0594 317.372 40.5406 285.398 42.7246 280.763C40.1311 279.932 37.9095 278.24 36.4382 275.974C34.9669 273.707 34.3369 271.008 34.6554 268.335L35.5969 260.435L36.5784 252.686L29.5475 245.746L29.5277 245.573L25.4815 210.626L19.5985 187.414C17.3819 178.639 17.5708 169.44 20.1459 160.761C22.721 152.083 27.5894 144.236 34.2515 138.029L47.8501 135.897L64.3765 120.179H91.0273L100.165 128.797C117.224 131.75 120.154 130.786 134.807 148.143L128.149 202.105L126.488 209.528L126.493 219.597L130.716 224.229C132.237 225.898 133.342 227.894 133.944 230.059C134.545 232.224 134.626 234.498 134.18 236.699L133.625 239.44C137.98 241.282 142.136 274.023 143.129 278.596L144.612 285.428C145.881 287.081 154.256 298.104 154.256 301.117C154.256 301.57 153.918 302.007 153.192 302.492C147.484 306.307 124.728 333.37 110.766 327.855C95.8928 321.985 36.771 330.791 36.1753 330.881L35.8681 330.928Z" fill="#232047"/>
      <path d="M32.2874 268.178C32.2874 268.178 39.1313 229.999 32.2365 215.641L4.88428 217.569L9.04689 272.037L32.9578 332.512C32.5928 334.375 32.7338 336.301 33.3664 338.093C33.999 339.885 35.1007 341.48 36.5597 342.716C38.0187 343.952 39.783 344.785 41.6734 345.13C43.5639 345.475 45.5133 345.32 47.3236 344.682C49.134 344.043 50.7409 342.942 51.9811 341.492C53.2214 340.042 54.0509 338.294 54.3855 336.425C54.72 334.557 54.5476 332.634 53.8859 330.852C53.2241 329.07 52.0966 327.493 50.6176 326.28L32.2874 268.178Z" fill="#FFB6B6"/>
      <path d="M4.88439 195.391L6.57721 177.194C7.21433 170.346 9.2169 163.689 12.4697 157.607C15.7226 151.526 20.1614 146.139 25.5311 141.756C28.8674 139.054 32.9031 137.326 37.182 136.768C41.4609 136.211 45.8125 136.846 49.7451 138.601C55.0597 141.016 59.2469 145.333 61.4601 150.68C63.6733 156.026 63.7474 162.002 61.6674 167.4C55.3456 183.766 57.6284 201.073 45.3015 203.183L46.6407 209.472L34.5204 248.515L0 244.568L4.88439 195.391Z" fill="#232047"/>
      <path d="M186.949 250.083C186.949 250.083 166.914 216.733 152.201 210.286L132.74 229.355L171.879 267.968L229.96 298.423C230.914 300.071 232.293 301.44 233.957 302.391C235.62 303.342 237.509 303.842 239.432 303.84C241.354 303.838 243.242 303.334 244.903 302.378C246.565 301.423 247.94 300.051 248.891 298.401C249.841 296.752 250.332 294.883 250.315 292.986C250.297 291.088 249.771 289.229 248.79 287.597C247.809 285.964 246.408 284.618 244.729 283.693C243.05 282.768 241.153 282.298 239.231 282.331L186.949 250.083Z" fill="#FFB6B6"/>
      <path d="M118.088 212.542L107.349 197.657C103.308 192.055 100.428 185.719 98.8761 179.015C97.3241 172.31 97.1303 165.369 98.3059 158.59C99.0496 154.394 100.968 150.486 103.843 147.309C106.719 144.132 110.437 141.812 114.578 140.611C120.203 139.021 126.229 139.599 131.439 142.227C136.649 144.855 140.653 149.338 142.643 154.769C148.662 171.246 170.619 198.325 162.668 207.86L167.838 211.766L175.652 233.739L146.874 252.967L118.088 212.542Z" fill="#232047"/>
      <path d="M75.9036 112.586C92.2499 112.586 105.501 99.5057 105.501 83.3703C105.501 67.235 92.2499 54.1547 75.9036 54.1547C59.5572 54.1547 46.3059 67.235 46.3059 83.3703C46.3059 99.5057 59.5572 112.586 75.9036 112.586Z" fill="#FFB6B6"/>
      <path d="M54.4242 103.963C54.1659 103.739 53.922 103.501 53.6695 103.271C53.6605 103.294 53.6591 103.318 53.6494 103.342L54.4242 103.963Z" fill="#2F2E41"/>
      <path d="M100.159 52.5185C98.6883 50.1818 96.6515 48.2432 94.2321 46.8779C92.5784 46.0862 90.8407 45.4785 89.051 45.0659L84.367 43.8044C81.967 43.0713 79.4978 42.5805 76.9975 42.3396C73.5253 42.1706 70.0729 42.9466 67.0172 44.5829C63.9615 46.2193 61.4202 48.653 59.6707 51.6183C58.2555 54.096 57.1204 57.1836 54.3891 58.0901C52.1867 58.821 49.7839 57.79 47.4692 57.99C46.1129 58.184 44.826 58.7052 43.7226 59.5075C42.6192 60.3099 41.7332 61.3684 41.1433 62.5895C39.9898 65.0467 39.4221 67.7322 39.4838 70.4397C39.3928 76.5868 40.6082 82.6844 43.0516 88.3392C45.4949 93.9941 49.1119 99.0806 53.6694 103.271C54.4333 101.283 53.1751 99.1372 52.1804 97.2358C51.174 95.3119 50.5521 92.6297 52.2377 91.2441C54.1132 89.7023 57.1182 91.1974 59.3363 90.1919C60.046 89.7896 60.6437 89.22 61.076 88.5341C61.5083 87.8482 61.7617 87.0672 61.8138 86.261C62.0285 84.6635 61.8043 83.0397 61.9059 81.4313C62.0066 79.837 62.4262 78.2781 63.1407 76.8448C63.8551 75.4115 64.85 74.132 66.0682 73.0804C67.2863 72.0287 68.7034 71.2257 70.2377 70.7177C71.772 70.2096 73.3931 70.0067 75.0073 70.1205C80.0561 70.4765 84.956 73.882 89.8147 72.481C92.0954 71.8234 94.0406 70.149 96.3994 69.8673C99.0117 69.5554 101.469 71.0106 103.687 72.408C104.493 69.0296 104.596 65.5249 103.99 62.1061C103.383 58.6873 102.08 55.4256 100.159 52.5185Z" fill="#2F2E41"/>
      <path d="M260.848 510.217V61.5409C260.861 55.9627 263.114 50.6159 267.114 46.6717C271.114 42.7272 276.537 40.5072 282.194 40.5L955.779 40.5C961.436 40.5071 966.858 42.7271 970.859 46.6716C974.859 50.616 977.112 55.9631 977.125 61.5415V510.216C977.121 515.799 974.872 521.154 970.87 525.104C966.869 529.054 961.441 531.276 955.779 531.281H282.194C276.532 531.276 271.104 529.054 267.102 525.104C263.101 521.154 260.852 515.799 260.848 510.217Z" fill="#232047" stroke="#3F3D56"/>
      <path d="M279.926 512.47C277.832 510.402 276.655 507.602 276.649 504.681V67.1229C276.649 67.1229 276.649 67.1228 276.649 67.1228C276.65 64.1987 277.825 61.3927 279.92 59.3209C282.014 57.2489 284.857 56.0806 287.825 56.074H950.171C953.14 56.0805 955.983 57.2489 958.077 59.3209C960.172 61.3927 961.347 64.1987 961.347 67.1228V504.681C961.342 507.602 960.165 510.402 958.071 512.47C955.976 514.537 953.136 515.702 950.172 515.707H287.826C284.861 515.702 282.021 514.537 279.926 512.47Z" fill="url(#pattern0)" stroke="black"/>
      <path d="M246.26 597.721C247.494 599.248 249.062 600.479 250.848 601.322C252.633 602.165 254.588 602.598 256.567 602.588H977.819C979.792 602.586 981.739 602.15 983.519 601.311C985.299 600.472 986.867 599.253 988.11 597.74C989.353 596.228 990.238 594.462 990.702 592.569C991.166 590.677 991.197 588.706 990.792 586.801L979.596 534.306C979.132 532.165 978.133 530.173 976.69 528.511C975.246 526.849 973.405 525.57 971.333 524.79C969.832 524.209 968.235 523.911 966.623 523.913H267.719C266.107 523.911 264.51 524.208 263.01 524.79C260.937 525.57 259.096 526.849 257.652 528.511C256.209 530.173 255.21 532.165 254.746 534.306L243.55 586.801C243.151 588.705 243.188 590.673 243.657 592.562C244.126 594.451 245.015 596.213 246.26 597.721Z" fill="#2F2E41"/>
      <path d="M940.059 546.523H960.728C961.155 546.523 961.501 546.182 961.501 545.76V534.13C961.501 533.708 961.155 533.367 960.728 533.367H940.059C939.632 533.367 939.286 533.708 939.286 534.13V545.76C939.286 546.182 939.632 546.523 940.059 546.523Z" fill="#3F3D56"/>
      <path d="M895.631 546.523H916.299C916.726 546.523 917.072 546.182 917.072 545.76V534.13C917.072 533.708 916.726 533.367 916.299 533.367H895.631C895.204 533.367 894.858 533.708 894.858 534.13V545.76C894.858 546.182 895.204 546.523 895.631 546.523Z" fill="#3F3D56"/>
      <path d="M851.203 546.523H871.87C872.297 546.523 872.644 546.182 872.644 545.76V534.13C872.644 533.708 872.297 533.367 871.87 533.367H851.203C850.776 533.367 850.429 533.708 850.429 534.13V545.76C850.429 546.182 850.776 546.523 851.203 546.523Z" fill="#3F3D56"/>
      <path d="M806.774 546.523H827.442C827.869 546.523 828.215 546.182 828.215 545.76V534.13C828.215 533.708 827.869 533.367 827.442 533.367H806.774C806.347 533.367 806.001 533.708 806.001 534.13V545.76C806.001 546.182 806.347 546.523 806.774 546.523Z" fill="#3F3D56"/>
      <path d="M762.345 546.523H783.014C783.441 546.523 783.787 546.182 783.787 545.76V534.13C783.787 533.708 783.441 533.367 783.014 533.367H762.345C761.918 533.367 761.572 533.708 761.572 534.13V545.76C761.572 546.182 761.918 546.523 762.345 546.523Z" fill="#3F3D56"/>
      <path d="M717.917 546.523H738.585C739.012 546.523 739.358 546.182 739.358 545.76V534.13C739.358 533.708 739.012 533.367 738.585 533.367H717.917C717.49 533.367 717.144 533.708 717.144 534.13V545.76C717.144 546.182 717.49 546.523 717.917 546.523Z" fill="#3F3D56"/>
      <path d="M673.489 546.523H694.157C694.584 546.523 694.93 546.182 694.93 545.76V534.13C694.93 533.708 694.584 533.367 694.157 533.367H673.489C673.062 533.367 672.715 533.708 672.715 534.13V545.76C672.715 546.182 673.062 546.523 673.489 546.523Z" fill="#3F3D56"/>
      <path d="M629.06 546.523H649.728C650.155 546.523 650.501 546.182 650.501 545.76V534.13C650.501 533.708 650.155 533.367 649.728 533.367H629.06C628.633 533.367 628.287 533.708 628.287 534.13V545.76C628.287 546.182 628.633 546.523 629.06 546.523Z" fill="#3F3D56"/>
      <path d="M584.632 546.523H605.3C605.727 546.523 606.073 546.182 606.073 545.76V534.13C606.073 533.708 605.727 533.367 605.3 533.367H584.632C584.205 533.367 583.859 533.708 583.859 534.13V545.76C583.859 546.182 584.205 546.523 584.632 546.523Z" fill="#3F3D56"/>
      <path d="M540.203 546.523H560.871C561.298 546.523 561.644 546.182 561.644 545.76V534.13C561.644 533.708 561.298 533.367 560.871 533.367H540.203C539.776 533.367 539.43 533.708 539.43 534.13V545.76C539.43 546.182 539.776 546.523 540.203 546.523Z" fill="#3F3D56"/>
      <path d="M495.775 546.523H516.443C516.87 546.523 517.216 546.182 517.216 545.76V534.13C517.216 533.708 516.87 533.367 516.443 533.367H495.775C495.348 533.367 495.002 533.708 495.002 534.13V545.76C495.002 546.182 495.348 546.523 495.775 546.523Z" fill="#3F3D56"/>
      <path d="M451.346 546.523H472.014C472.441 546.523 472.787 546.182 472.787 545.76V534.13C472.787 533.708 472.441 533.367 472.014 533.367H451.346C450.919 533.367 450.573 533.708 450.573 534.13V545.76C450.573 546.182 450.919 546.523 451.346 546.523Z" fill="#3F3D56"/>
      <path d="M406.918 546.523H427.586C428.013 546.523 428.359 546.182 428.359 545.76V534.13C428.359 533.708 428.013 533.367 427.586 533.367H406.918C406.491 533.367 406.145 533.708 406.145 534.13V545.76C406.145 546.182 406.491 546.523 406.918 546.523Z" fill="#3F3D56"/>
      <path d="M362.489 546.523H383.157C383.584 546.523 383.93 546.182 383.93 545.76V534.13C383.93 533.708 383.584 533.367 383.157 533.367H362.489C362.062 533.367 361.716 533.708 361.716 534.13V545.76C361.716 546.182 362.062 546.523 362.489 546.523Z" fill="#3F3D56"/>
      <path d="M318.061 546.523H338.729C339.156 546.523 339.502 546.182 339.502 545.76V534.13C339.502 533.708 339.156 533.367 338.729 533.367H318.061C317.634 533.367 317.288 533.708 317.288 534.13V545.76C317.288 546.182 317.634 546.523 318.061 546.523Z" fill="#3F3D56"/>
      <path d="M273.632 546.523H294.3C294.727 546.523 295.073 546.182 295.073 545.76V534.13C295.073 533.708 294.727 533.367 294.3 533.367H273.632C273.205 533.367 272.859 533.708 272.859 534.13V545.76C272.859 546.182 273.205 546.523 273.632 546.523Z" fill="#3F3D56"/>
      <path d="M940.584 568.451H961.252C961.679 568.451 962.026 568.109 962.026 567.688V556.057C962.026 555.636 961.679 555.294 961.252 555.294H940.584C940.158 555.294 939.811 555.636 939.811 556.057V567.688C939.811 568.109 940.158 568.451 940.584 568.451Z" fill="#3F3D56"/>
      <path d="M896.156 568.451H916.824C917.251 568.451 917.597 568.109 917.597 567.688V556.057C917.597 555.636 917.251 555.294 916.824 555.294H896.156C895.729 555.294 895.383 555.636 895.383 556.057V567.688C895.383 568.109 895.729 568.451 896.156 568.451Z" fill="#3F3D56"/>
      <path d="M851.727 568.451H872.395C872.822 568.451 873.168 568.109 873.168 567.688V556.057C873.168 555.636 872.822 555.294 872.395 555.294H851.727C851.3 555.294 850.954 555.636 850.954 556.057V567.688C850.954 568.109 851.3 568.451 851.727 568.451Z" fill="#3F3D56"/>
      <path d="M807.299 568.451H827.967C828.394 568.451 828.74 568.109 828.74 567.688V556.057C828.74 555.636 828.394 555.294 827.967 555.294H807.299C806.872 555.294 806.526 555.636 806.526 556.057V567.688C806.526 568.109 806.872 568.451 807.299 568.451Z" fill="#3F3D56"/>
      <path d="M762.871 568.451H783.538C783.965 568.451 784.312 568.109 784.312 567.688V556.057C784.312 555.636 783.965 555.294 783.538 555.294H762.871C762.444 555.294 762.097 555.636 762.097 556.057V567.688C762.097 568.109 762.444 568.451 762.871 568.451Z" fill="#3F3D56"/>
      <path d="M718.442 568.451H739.11C739.537 568.451 739.883 568.109 739.883 567.688V556.057C739.883 555.636 739.537 555.294 739.11 555.294H718.442C718.015 555.294 717.669 555.636 717.669 556.057V567.688C717.669 568.109 718.015 568.451 718.442 568.451Z" fill="#3F3D56"/>
      <path d="M674.014 568.451H694.682C695.109 568.451 695.455 568.109 695.455 567.688V556.057C695.455 555.636 695.109 555.294 694.682 555.294H674.014C673.587 555.294 673.24 555.636 673.24 556.057V567.688C673.24 568.109 673.587 568.451 674.014 568.451Z" fill="#3F3D56"/>
      <path d="M629.585 568.451H650.253C650.68 568.451 651.026 568.109 651.026 567.688V556.057C651.026 555.636 650.68 555.294 650.253 555.294H629.585C629.158 555.294 628.812 555.636 628.812 556.057V567.688C628.812 568.109 629.158 568.451 629.585 568.451Z" fill="#3F3D56"/>
      <path d="M585.157 568.451H605.825C606.252 568.451 606.598 568.109 606.598 567.688V556.057C606.598 555.636 606.252 555.294 605.825 555.294H585.157C584.73 555.294 584.384 555.636 584.384 556.057V567.688C584.384 568.109 584.73 568.451 585.157 568.451Z" fill="#3F3D56"/>
      <path d="M540.728 568.451H561.396C561.823 568.451 562.169 568.109 562.169 567.688V556.057C562.169 555.636 561.823 555.294 561.396 555.294H540.728C540.301 555.294 539.955 555.636 539.955 556.057V567.688C539.955 568.109 540.301 568.451 540.728 568.451Z" fill="#3F3D56"/>
      <path d="M496.3 568.451H516.968C517.395 568.451 517.741 568.109 517.741 567.688V556.057C517.741 555.636 517.395 555.294 516.968 555.294H496.3C495.873 555.294 495.527 555.636 495.527 556.057V567.688C495.527 568.109 495.873 568.451 496.3 568.451Z" fill="#3F3D56"/>
      <path d="M451.871 568.451H472.539C472.966 568.451 473.312 568.109 473.312 567.688V556.057C473.312 555.636 472.966 555.294 472.539 555.294H451.871C451.444 555.294 451.098 555.636 451.098 556.057V567.688C451.098 568.109 451.444 568.451 451.871 568.451Z" fill="#3F3D56"/>
      <path d="M407.443 568.451H428.111C428.538 568.451 428.884 568.109 428.884 567.688V556.057C428.884 555.636 428.538 555.294 428.111 555.294H407.443C407.016 555.294 406.67 555.636 406.67 556.057V567.688C406.67 568.109 407.016 568.451 407.443 568.451Z" fill="#3F3D56"/>
      <path d="M363.014 568.451H383.682C384.109 568.451 384.456 568.109 384.456 567.688V556.057C384.456 555.636 384.109 555.294 383.682 555.294H363.014C362.587 555.294 362.241 555.636 362.241 556.057V567.688C362.241 568.109 362.587 568.451 363.014 568.451Z" fill="#3F3D56"/>
      <path d="M318.586 568.451H339.254C339.681 568.451 340.027 568.109 340.027 567.688V556.057C340.027 555.636 339.681 555.294 339.254 555.294H318.586C318.159 555.294 317.813 555.636 317.813 556.057V567.688C317.813 568.109 318.159 568.451 318.586 568.451Z" fill="#3F3D56"/>
      <path d="M274.157 568.451H294.825C295.252 568.451 295.598 568.109 295.598 567.688V556.057C295.598 555.636 295.252 555.294 294.825 555.294H274.157C273.73 555.294 273.384 555.636 273.384 556.057V567.688C273.384 568.109 273.73 568.451 274.157 568.451Z" fill="#3F3D56"/>
      <path d="M522.735 594.764H698.903C699.33 594.764 699.676 594.422 699.676 594.001V582.37C699.676 581.949 699.33 581.607 698.903 581.607H522.735C522.308 581.607 521.962 581.949 521.962 582.37V594.001C521.962 594.422 522.308 594.764 522.735 594.764Z" fill="#3F3D56"/>
      <g opacity="0.35">
      <path opacity="0.35" d="M941.94 327.967C951.812 323.718 931.791 321.245 909.076 320.432C886.361 319.618 858.883 319.663 844.367 317.35C830.328 315.113 831.362 311.135 830.181 307.531C829 303.927 823.603 300.232 801.696 299.431C774.398 298.432 729.381 302.275 708.773 299.968C689.543 297.815 700.974 291.062 672.932 290.804C656.92 290.656 636.291 292.882 618.474 293.42C605.845 293.961 593.192 293.309 580.688 291.475C572.003 290.071 565.955 288.29 556.181 287.05C530.521 283.793 480.317 284.887 435.508 289.062C390.7 293.236 352.29 300.077 330.629 306.852C308.967 313.627 302.983 320.298 308.028 325.955C311.25 329.567 319.495 332.945 339.496 334.396C376.906 337.111 443.51 332.438 482.167 334.908C503.712 336.285 513.27 339.698 532.173 341.566C552.482 343.573 582.212 343.679 611.422 343.631C672.24 343.532 734.614 342.915 798.216 341.784C824.782 341.312 852.617 340.698 880.885 338.446C909.153 336.195 937.986 331.85 943.95 327.778" fill="white"/>
      </g>
      <path d="M41.1482 69.8956C43.6678 69.2719 45.3099 67.1493 44.8161 65.1547C44.3223 63.1601 41.8796 62.0488 39.3601 62.6725C36.8406 63.2962 35.1984 65.4188 35.6922 67.4134C36.186 69.408 38.6287 70.5193 41.1482 69.8956Z" fill="#3F3D56"/>
      <path d="M70.6735 66.9282C59.5513 69.6204 48.1114 70.4341 37.0929 69.3166C36.4378 69.2532 35.8406 69.0331 35.374 68.6831C34.9074 68.3331 34.5916 67.8684 34.4651 67.3455L29.0383 45.4246C28.8615 44.7062 29.0519 43.9284 29.5676 43.2618C30.0833 42.5952 30.8823 42.0943 31.7892 41.8689L93.3758 26.6223C94.2831 26.3985 95.2235 26.4688 95.9907 26.8178C96.7578 27.1668 97.289 27.766 97.4678 28.4839L102.895 50.4048C103.027 50.9263 102.964 51.4847 102.715 52.012C102.465 52.5392 102.04 53.0125 101.49 53.3743C92.2654 59.5032 81.7672 64.1206 70.6735 66.9282Z" fill="#232047"/>
      <path d="M66.2687 49.1718C65.8122 49.2851 65.3424 49.3251 64.8868 49.2893L12.0111 45.0677C11.3293 45.0133 10.7057 44.7911 10.2207 44.4297C9.7357 44.0684 9.41161 43.5844 9.29019 43.0403C9.16877 42.4961 9.25561 41.9167 9.53947 41.3768C9.82334 40.8369 10.2912 40.3612 10.8828 40.0111L56.0897 13.2529C56.8175 12.8209 57.6876 12.607 58.5323 12.6526L110.347 15.3916C111.03 15.4277 111.663 15.6312 112.162 15.976C112.662 16.3207 113.007 16.7911 113.153 17.3269C113.299 17.8627 113.24 18.4396 112.982 18.9837C112.724 19.5278 112.28 20.0145 111.707 20.3814L67.5607 48.6217C67.1708 48.8705 66.7313 49.0576 66.2687 49.1718Z" fill="#232047"/>
      <path opacity="0.2" d="M111.3 18.0248L67.1539 46.2652C66.8097 46.4854 66.4219 46.6514 66.0135 46.7533C65.6052 46.8552 65.1847 46.891 64.7772 46.8585L11.9016 42.6374C11.2388 42.5892 10.639 42.3599 10.1969 41.9855C10.0548 42.3344 10.0027 42.696 10.0441 43.0461C10.0854 43.3962 10.2194 43.727 10.437 44.0163C10.6546 44.3057 10.9509 44.5471 11.3062 44.7245C11.6614 44.9018 12.0676 45.0111 12.4977 45.0451L65.3732 49.2662C65.7808 49.2987 66.2013 49.2629 66.6096 49.161C67.018 49.0591 67.4058 48.8931 67.75 48.6729L111.896 20.4325C112.258 20.2012 112.564 19.9149 112.794 19.5927C113.023 19.2704 113.171 18.9195 113.227 18.5631C113.283 18.2067 113.247 17.8528 113.12 17.525C112.993 17.1971 112.779 16.9027 112.491 16.6611C112.276 17.1942 111.858 17.6736 111.3 18.0248Z" fill="black"/>
      <path d="M40.6342 66.1751C40.8359 66.1251 41.0136 66.0138 41.1282 65.8657C41.2429 65.7175 41.2851 65.5445 41.2455 65.3849L36.2593 45.2436L59.5454 31.8034C59.7476 31.7558 59.9271 31.6465 60.0443 31.4995C60.1614 31.3524 60.2068 31.1797 60.1702 31.0194C60.1337 30.859 60.0184 30.724 59.8495 30.6443C59.6807 30.5645 59.4722 30.5464 59.27 30.5939L35.9839 44.0342C35.7812 44.0805 35.5877 44.1589 35.4151 44.2648C35.2425 44.3707 35.0944 44.5018 34.9798 44.6502C34.8633 44.7976 34.782 44.9594 34.7406 45.126C34.6991 45.2925 34.6985 45.4606 34.7386 45.6201L39.7249 65.7614C39.7644 65.921 39.8824 66.0543 40.053 66.1318C40.2235 66.2094 40.4326 66.225 40.6342 66.1751Z" fill="white"/>
            


      </svg>